# xmcd CD database file
#
# Track frame offsets:
#	150
#	16892
#	36059
#	49686
#	67678
#	82069
#	98143
#	111721
#	125877
#	142231
#	158303
#	173883
#	186796
#	203655
#	218510
#	231239
#	250347
#	265175
#	280130
#	295912
#	308965
#	324870
#
# Disc length: 4547 seconds
#
# Revision: 17
# Processed by: cddbd v1.5.2PL0 Copyright (c) Steve Scherf et al.
# Submitted via: CDex 1.70beta2
#
DISCID=3d11c116
DTITLE=Alabama - The Essential Alabama  [2005]  - Disc 2
DYEAR=2005
DGENRE=Country
TTITLE0=Touch Me When We're Dancing
TTITLE1=You've Got The Touch
TTITLE2=Face To Face
TTITLE3=Fallin' Again
TTITLE4=Song Of The South
TTITLE5=If I Had You
TTITLE6=High Cotton
TTITLE7=Southern Star
TTITLE8=Jukebox In My Mind
TTITLE9=Forever's As Far As I'll Go
TTITLE10=Down Home
TTITLE11=Here We Are
TTITLE12=Then Again
TTITLE13=Born Country
TTITLE14=I'm In A Hurry (And Don't Know Why)
TTITLE15=Once Upon A Lifetime
TTITLE16=Hometown Honeymoon
TTITLE17=Reckless
TTITLE18=Give Me One More Shot
TTITLE19=She Ain't Your Ordinary Girl
TTITLE20=In Pictures
TTITLE21=Sad Lookin' Moon
EXTD=original YEAR: 2005
EXTT0=
EXTT1=
EXTT2=
EXTT3=
EXTT4=
EXTT5=
EXTT6=
EXTT7=
EXTT8=
EXTT9=
EXTT10=
EXTT11=
EXTT12=
EXTT13=
EXTT14=
EXTT15=
EXTT16=
EXTT17=
EXTT18=
EXTT19=
EXTT20=
EXTT21=
PLAYORDER=
